<svg height="512" viewBox="0 0 512 512" width="512" xmlns="http://www.w3.org/2000/svg"><g id="Flat"><path d="m97.76 363.4a47.62 47.62 0 0 0 -17.76-3.4h-32v32a48 48 0 0 0 48 48h13.59z" fill="#e0e0de"/><path d="m291.58 417.88 2.36 11.82 2.06 10.3 3.45 5.17 28.55 42.83h40 16l-48-72z" fill="#c7c7c5"/><path d="m397.22 38.71a24.269 24.269 0 0 0 -44.61 0 133 133 0 0 0 -7.45 22.89l6.84 82.4 47.51-2.38 4.51-18.04a133.379 133.379 0 0 0 -6.8-84.87z" fill="#d6d6d4"/><path d="m400 456h-8l-8-16v-88l-64 8 16 80 32 48h56v-8a24 24 0 0 0 -24-24z" fill="#dbdbd9"/><path d="m464 208.42a46.877 46.877 0 0 1 -46.9 47.57h-1.1v56a97.464 97.464 0 0 1 -32 72.26l-106.64 76.82a23.775 23.775 0 0 1 2.64 10.93v16h-128v-.01h-16l-19.41-35.41q-3.885-6.27-7-12.59a127.169 127.169 0 0 1 -13.59-55.6 116.609 116.609 0 0 1 93.81-115.16l66.19-13.24 64-32v-32.73a55.042 55.042 0 0 1 10.34-32.18l-23.16-30.35a132.611 132.611 0 0 1 -27.18-80.43 24.269 24.269 0 0 1 18.18-23.54 24.693 24.693 0 0 1 23.2 6.29 132.974 132.974 0 0 1 23.78 30.54.035.035 0 0 1 .01.02 133.179 133.179 0 0 1 15.63 44.3l5.05 30.9a54.963 54.963 0 0 1 33.65 4.79h.01v.01a52.922 52.922 0 0 1 6.41 3.66l36.55 24.36a47.748 47.748 0 0 1 21.53 38.79z" fill="#e0e0de"/><path d="m416 270.07v41.92a97.464 97.464 0 0 1 -32 72.26l-44.57 32.11-14.27 10.27-47.8 34.44a23.775 23.775 0 0 1 2.64 10.93v16h-128v-.01h-16l-19.41-35.41q-3.885-6.27-7-12.59a127.169 127.169 0 0 1 -13.59-55.6c125.84-10.88 235.93-45.82 320-114.32z" fill="#dbdbd9"/><circle cx="392" cy="192" fill="#000000" r="12"/><g fill="#cfcfcd"><path d="m336.327 425.816a8 8 0 0 1 -12.522-4.927l-11.655-59.319a8 8 0 1 1 15.69-3.14l11.66 59.32a8 8 0 0 1 -3.173 8.066z"/><path d="m288 488h-16v-16a16 16 0 0 0 -16-16h-32a8 8 0 0 1 -8-8v-8a8.258 8.258 0 0 1 .085-1.165 62.388 62.388 0 0 0 -39.861-67.207l-3.543-1.329a8 8 0 0 1 -4.681-10.299 8 8 0 0 1 10.3-4.681l3.543 1.328a78.391 78.391 0 0 1 50.23 83.353h23.927a32 32 0 0 1 32 32z"/></g></g></svg>